<?xml version="1.0" encoding="iso-8859-1"?>
<!-- Generator: Adobe Illustrator 25.0.0, SVG Export Plug-In . SVG Version: 6.00 Build 0)  -->
<svg fill="#393e41" version="1.1" baseProfile="basic" id="Layer_1"
	 xmlns="http://www.w3.org/2000/svg" xmlns:xlink="http://www.w3.org/1999/xlink" x="0px" y="0px" viewBox="0 0 64 64"
	 xml:space="preserve">
<path d="M42,15H15c-1.654,0-3,1.346-3,3v6.359C12,25.715,12.686,26,13.26,26c1.769,0,2.551-2,6.203-2c4.005,0,8.262,2.804,8.262,8
	s-4.257,8-8.262,8c-3.652,0-4.434-2-6.203-2C12.686,38,12,38.285,12,39.641V46c0,1.654,1.346,3,3,3h27c1.654,0,3-1.346,3-3v-6.621
	C45,35.709,47.991,34,50.013,34c3.183,0,3.716,2,5.987,2c1.934,0,4-1.051,4-4s-2.066-4-4-4c-2.271,0-2.804,2-5.987,2
	C47.991,30,45,28.291,45,24.621V18C45,16.346,43.654,15,42,15z M42,11c3.859,0,7,3.14,7,7v6.621C49,25.889,50.005,26,50.015,26
	c1.698,0,2.324-2,5.985-2c4.71,0,8,3.29,8,8s-3.29,8-8,8c-3.662,0-4.288-2-5.985-2C50.005,38,49,38.111,49,39.379V46
	c0,3.86-3.141,7-7,7H15c-3.859,0-7-3.14-7-7v-6.359C8,35.938,10.646,34,13.26,34c3.334,0,3.871,2,6.203,2
	c1.474,0,4.262-0.836,4.262-4s-2.788-4-4.262-4c-2.332,0-2.87,2-6.203,2C10.646,30,8,28.062,8,24.359V18c0-3.86,3.141-7,7-7H42z"/>
</svg>