<?xml version="1.0" encoding="iso-8859-1"?>
<!-- Generator: Adobe Illustrator 25.0.0, SVG Export Plug-In . SVG Version: 6.00 Build 0)  -->
<svg fill="#393e41" version="1.1" baseProfile="basic" id="Layer_1"
	 xmlns="http://www.w3.org/2000/svg" xmlns:xlink="http://www.w3.org/1999/xlink" x="0px" y="0px" viewBox="0 0 64 64"
	 xml:space="preserve">
<path d="M42,11c3.866,0,7,3.134,7,7v5.621C49,26.021,50.909,27,52.013,27c1.978,0,2.244-2,5.987-2c3.397,0,6,3.248,6,7s-2.603,7-6,7
	c-3.739,0-4.046-2-5.987-2C50.909,37,49,37.979,49,40.379V46c0,3.866-3.134,7-7,7H15c-3.866,0-7-3.134-7-7v-7.36
	C8,35.785,10.044,35,11.26,35c2.769,0,3.102,2,6.203,2c2.997,0,5.261-1.59,5.261-5s-2.264-5-5.261-5c-3.101,0-3.463,2-6.203,2
	C10.044,29,8,28.215,8,25.36V18c0-3.866,3.134-7,7-7H42z"/>
</svg>