<?xml version="1.0" encoding="iso-8859-1"?>
<!-- Generator: Adobe Illustrator 25.0.0, SVG Export Plug-In . SVG Version: 6.00 Build 0)  -->
<svg fill="#393e41" version="1.1" baseProfile="basic" id="Layer_1"
	 xmlns="http://www.w3.org/2000/svg" xmlns:xlink="http://www.w3.org/1999/xlink" x="0px" y="0px" viewBox="0 0 64 64"
	 xml:space="preserve">
<path d="M32,16l20,16.706V47c0,2.761-2.239,5-5,5H17c-2.761,0-5-2.239-5-5V32.706L32,16z M38,48V34c0-1.105-0.895-2-2-2h-8
	c-1.105,0-2,0.895-2,2v14H38z"/>
<path d="M52,24l-6-5v-4c0-1.105,0.895-2,2-2h2c1.105,0,2,0.895,2,2V24z"/>
<path d="M55.213,26.184c0.742,0.62,1.016,1.69,0.551,2.538c-0.381,0.694-1.07,1.055-1.765,1.055c-0.452,0-0.907-0.152-1.281-0.465
	L32.323,12.27c-0.187-0.156-0.459-0.156-0.646,0L11.282,29.311c-0.931,0.778-2.364,0.565-3.011-0.527
	c-0.508-0.858-0.235-1.973,0.53-2.612L29.435,8.93c1.485-1.241,3.645-1.241,5.13,0L55.213,26.184z"/>
</svg>