<?xml version="1.0" encoding="iso-8859-1"?>
<!-- Generator: Adobe Illustrator 25.0.0, SVG Export Plug-In . SVG Version: 6.00 Build 0)  -->
<svg fill="#393e41" version="1.1" baseProfile="basic" id="Layer_1"
	 xmlns="http://www.w3.org/2000/svg" xmlns:xlink="http://www.w3.org/1999/xlink" x="0px" y="0px" viewBox="0 0 64 64"
	 xml:space="preserve">
<path d="M29.055,10h5.891c1.339,0,2.483,0.964,2.71,2.284l0.582,3.381c0.306,0.117,0.61,0.237,0.907,0.371l2.798-1.976
	c1.009-0.709,2.474-0.73,3.531,0.302l4.165,4.165c0.947,0.947,1.074,2.438,0.302,3.531l-1.976,2.798
	c0.133,0.297,0.254,0.601,0.371,0.907l3.381,0.582C53.036,26.571,54,27.716,54,29.055v5.891c0,1.339-0.964,2.483-2.284,2.71
	l-3.381,0.582c-0.117,0.306-0.237,0.61-0.371,0.907l1.976,2.798c0.772,1.094,0.645,2.584-0.302,3.531l-4.165,4.165
	c-1.129,1.13-2.706,0.91-3.531,0.302l-2.798-1.976c-0.297,0.133-0.601,0.254-0.907,0.371l-0.582,3.381
	C37.429,53.036,36.284,54,34.945,54h-5.891c-1.339,0-2.483-0.964-2.71-2.284l-0.582-3.381c-0.306-0.117-0.61-0.237-0.907-0.371
	l-2.798,1.976c-0.932,0.675-2.447,0.758-3.531-0.302l-4.165-4.165c-0.947-0.947-1.074-2.438-0.302-3.531l1.976-2.798
	c-0.133-0.297-0.254-0.601-0.371-0.907l-3.381-0.582C10.964,37.429,10,36.284,10,34.945v-5.891c0-1.339,0.964-2.483,2.284-2.71
	l3.381-0.582c0.117-0.306,0.237-0.61,0.371-0.907l-1.976-2.798c-0.772-1.094-0.645-2.584,0.302-3.531l4.165-4.165
	c0.856-0.841,2.303-1.151,3.531-0.302l2.798,1.976c0.297-0.133,0.601-0.254,0.907-0.371l0.582-3.381
	C26.571,10.964,27.716,10,29.055,10z M33.91,14.104C33.9,14.044,33.848,14,33.787,14h-3.573c-0.061,0-0.113,0.044-0.123,0.104
	l-0.772,4.484c-1.719,0.614-3.36,1.287-4.908,2.03l-3.714-2.624c-0.05-0.035-0.118-0.029-0.161,0.014l-2.527,2.527
	c-0.043,0.043-0.049,0.111-0.014,0.161l2.624,3.714c-0.782,1.635-1.449,3.271-2.03,4.907l-4.485,0.772
	C14.044,30.1,14,30.152,14,30.213v3.573c0,0.061,0.044,0.113,0.104,0.123l4.484,0.772c0.574,1.607,1.251,3.243,2.03,4.908
	l-2.624,3.714c-0.035,0.05-0.029,0.118,0.014,0.161l2.527,2.527c0.043,0.043,0.111,0.049,0.161,0.014l3.714-2.624
	c1.665,0.804,3.299,1.471,4.908,2.03l0.772,4.484C30.1,49.956,30.152,50,30.213,50h3.573c0.061,0,0.113-0.044,0.123-0.104
	l0.772-4.484c1.632-0.583,3.268-1.259,4.908-2.03l3.714,2.624c0.05,0.035,0.118,0.029,0.161-0.014l2.527-2.527
	c0.043-0.043,0.049-0.111,0.014-0.161l-2.624-3.714c0.768-1.604,1.445-3.239,2.03-4.908l4.484-0.772
	C49.956,33.9,50,33.848,50,33.787v-3.573c0-0.061-0.044-0.113-0.104-0.123l-4.485-0.772c-0.586-1.669-1.271-3.302-2.03-4.907
	l2.624-3.714c0.035-0.05,0.029-0.118-0.014-0.161l-2.527-2.527c-0.043-0.043-0.111-0.049-0.161-0.014l-3.714,2.624
	c-1.485-0.725-3.14-1.395-4.908-2.03L33.91,14.104z"/>
<path d="M32,23c4.971,0,9,4.029,9,9c0,4.971-4.029,9-9,9s-9-4.029-9-9C23,27.029,27.029,23,32,23z M32,27c-2.761,0-5,2.239-5,5
	s2.239,5,5,5s5-2.239,5-5S34.761,27,32,27z"/>
</svg>